Coordinates
version=1
nRows=17
nColumns=33
inDegrees=yes

Units are S.I. units (second, meters, Newtons, ...)
Angles are in degrees.

endheader
time	ground_thorax_rot_x	ground_thorax_rot_y	ground_thorax_rot_z	ground_thorax_tx	ground_thorax_ty	ground_thorax_tz	clav_prot_r	clav_elev_r	scapula_abduction_r	scapula_elevation_r	scapula_upward_rot_r	scapula_winging_r	shoulder_elv_r	plane_of_elev_r	axial_rot_r	elbow_flexion_r	pro_sup_r	wrist_flex_r	wrist_dev_r	clav_prot_l	clav_elev_l	scapula_abduction_l	scapula_elevation_l	scapula_upward_rot_l	scapula_winging_l	shoulder_elv_l	plane_of_elev_l	axial_rot_l	elbow_flexion_l	pro_sup_l	wrist_flex_l	wrist_dev_l
      5.47000000	     38.12091440	      5.45976530	      8.08576352	   -149.58464755	    816.40195319	     -1.69876712	     15.54846859	     41.60778646	     45.00000000	     45.00000000	    -31.02523739	  -1886.04199438	  -4611.53050454	     27.85276450	    179.99999979	    356.71145490	    155.22885889	     16.24571410	     13.14498262	      8.32578447	    -45.00000000	    -45.00000000	     45.00000000	    -18.29375226	   1175.37756302	  -3167.01775197	     25.55404992	     -7.56857867	   -354.79604522	   -333.85711297	     10.52430279	    -22.34702359
      5.48000000	     37.71025692	      6.68172213	      9.49651587	   -153.82784954	    817.61915878	     -1.55147599	     17.06156975	     40.38130704	     44.84310114	     45.00000000	    -37.47881315	  -1885.64292088	  -4609.60704502	     29.01725304	    179.99999979	    355.86759415	    155.54301776	     16.93592109	     12.40555159	      9.26441175	    -45.00000000	    -44.99969616	     45.00000000	    -20.18493903	   1176.13337200	  -3166.75047491	     25.50094938	     -8.41703366	   -354.64491944	   -334.57718563	     10.60395014	    -22.30834240
      5.49000000	     37.63105530	      7.07370492	      9.89509886	   -158.02069324	    818.79349718	     -1.42095107	     17.00348487	     39.99649210	     44.53744737	     45.00000000	    -38.44337263	  -1885.60378985	  -4609.32439745	     28.93438984	    179.99999979	    355.89030024	    154.68278364	     17.02856136	     12.31040406	      9.47026264	    -45.00000000	    -44.69117874	     45.00000000	    -21.31951933	   1176.38925391	  -3166.53124874	     25.41498684	     -9.04189328	   -354.58665764	   -335.27816464	     10.55123171	    -22.36371070
      5.50000000	     37.52535694	      7.36181677	     10.28352262	   -162.16670357	    819.92230785	     -1.29887605	     16.98413469	     39.73899501	     44.30853682	     45.00000000	    -39.48603824	  -1885.64883459	  -4609.11750515	     28.97433828	    179.99999979	    355.97268938	    154.30081277	     17.10155445	     12.23876831	      9.53249309	    -45.00000000	    -44.21921984	     45.00000000	    -22.62631303	   1176.56064174	  -3166.20779429	     25.34113517	     -9.70436420	   -354.51899181	   -335.81990685	     10.43547605	    -22.41232816
      5.51000000	     37.58935711	      7.50311963	     10.30375755	   -166.27596337	    821.00477719	     -1.17283393	     16.90011885	     40.01587360	     44.17955245	     45.00000000	    -39.66467082	  -1886.29641118	  -4609.23544706	     29.24113242	    179.99999979	    356.33186144	    154.95057995	     16.75536718	     12.89908677	      9.78941504	    -45.00000000	    -44.06291290	     45.00000000	    -23.33434563	   1176.78561635	  -3166.21168750	     25.30593955	    -10.19331938	   -354.53192896	   -336.11998547	     10.27742516	    -22.37804383
      5.52000000	     37.50209717	      7.84566975	     10.84203649	   -170.34815586	    822.03637763	     -1.03954729	     16.99269540	     39.41139058	     43.98998651	     45.00000000	    -40.76588613	  -1886.03520002	  -4608.79397927	     28.93323565	    179.99999979	    356.33769792	    155.37924440	     17.22836775	     12.31685618	      9.78673560	    -45.00000000	    -43.54001889	     45.00000000	    -24.91397892	   1176.94093682	  -3165.90865357	     25.16685259	    -10.92661843	   -354.38009511	   -336.32814167	     10.15318587	    -22.51194163
      5.53000000	     37.47246094	      8.05622895	     11.08929441	   -174.38033675	    823.01098599	     -0.89429396	     16.93625857	     39.29747763	     43.75191805	     45.00000000	    -41.22933250	  -1886.20064400	  -4608.74133193	     28.90013790	    179.99999979	    356.48946557	    156.22796559	     17.36194993	     12.25159999	      9.81231158	    -45.00000000	    -43.14537792	     45.00000000	    -26.08858981	   1177.08425001	  -3165.70391992	     25.09997061	    -11.50465212	   -354.30353183	   -336.40900309	      9.97418431	    -22.58439442
      5.54000000	     37.44031821	      8.26208605	     11.37152004	   -178.35907920	    823.91945019	     -0.74363774	     16.92009890	     39.14459142	     43.59989872	     45.00000000	    -41.82252560	  -1886.36691932	  -4608.67152614	     28.85718152	    179.99999979	    356.64696484	    157.51007640	     17.52995730	     12.19735969	      9.91811327	    -45.00000000	    -42.83869954	     45.00000000	    -27.20691136	   1177.28201466	  -3165.52609255	     25.00178610	    -12.06689748	   -354.26013575	   -336.31709023	      9.78248451	    -22.65014094
      5.55000000	     37.40495135	      8.49921747	     11.63637703	   -182.26629501	    824.75360088	     -0.59428858	     16.86409579	     39.07746448	     43.38439954	     45.00000000	    -42.19430647	  -1886.59905099	  -4608.71673226	     28.79903621	    179.99999979	    356.85346918	    159.01066829	     17.69446748	     12.13934380	      9.96648562	    -45.00000000	    -42.49196114	     45.00000000	    -28.32132964	   1177.41392599	  -3165.35610036	     24.92953222	    -12.57453123	   -354.19631741	   -336.06662555	      9.54406609	    -22.72518014
      5.56000000	     37.38059346	      8.66764053	     11.87123426	   -186.08349259	    825.50618701	     -0.45456239	     16.83074950	     38.95542637	     43.22317923	     45.00000000	    -42.52786205	  -1886.75555191	  -4608.70519314	     28.70286863	    179.99999979	    357.05971795	    160.69867411	     17.88395143	     12.07826464	     10.05886609	    -45.00000000	    -42.18551437	     45.00000000	    -29.43751651	   1177.59487671	  -3165.20241832	     24.87447614	    -13.06500053	   -354.12553215	   -335.64099264	      9.32137099	    -22.81954364
      5.57000000	     37.36131529	      8.78475153	     12.02469689	   -189.81240789	    826.18057431	     -0.32030756	     16.85582676	     38.89393064	     43.05803745	     45.00000000	    -42.68091704	  -1886.99553859	  -4608.80785388	     28.62577727	    179.99999979	    357.30506466	    162.77444774	     18.04012599	     12.20898989	     10.22498181	    -45.00000000	    -41.93743217	     45.00000000	    -30.49960064	   1177.80267394	  -3165.09392375	     24.86458456	    -13.50617298	   -354.05858069	   -335.07325044	      9.12437107	    -22.91993986
      5.58000000	     37.32542512	      9.03538330	     12.37754052	   -193.44474298	    826.77729017	     -0.19082377	     16.80770773	     38.81905910	     42.81664660	     45.00000000	    -42.99932357	  -1887.16201391	  -4608.81952835	     28.55922840	    179.99999979	    357.51561647	    164.79502357	     18.28922716	     11.99785358	     10.23601371	    -45.00000000	    -41.58150119	     45.00000000	    -31.67367716	   1177.93710802	  -3164.95666509	     24.75281187	    -13.91620547	   -354.00973205	   -334.31359220	      8.83022632	    -23.03133374
      5.59000000	     37.24867099	      9.41063558	     12.79796009	   -197.00318214	    827.31814077	     -0.04740321	     16.66505340	     38.78190084	     42.55751058	     45.00000000	    -42.93417249	  -1887.44278322	  -4609.15574279	     28.32790236	    179.64780116	    357.76180051	    167.25186758	     18.50162639	     11.97026804	     10.19612948	    -45.00000000	    -41.23742597	     45.00000000	    -32.90908714	   1178.01965746	  -3164.79221317	     24.68347866	    -14.28624494	   -354.03052934	   -333.35536348	      8.50911719	    -23.13834488
      5.60000000	     37.20409588	      9.69870835	     13.25059344	   -200.48059213	    827.79462281	      0.10115547	     16.59812198	     38.86072358	     42.35935914	     45.00000000	    -42.19344773	  -1887.87276265	  -4610.22228001	     28.42424963	    175.17865812	    359.17262655	    170.61614707	     18.41401034	     12.64483076	     10.32604042	    -45.00000000	    -40.85426924	     45.00000000	    -34.15876540	   1178.23353745	  -3164.72906760	     24.65799621	    -14.71460509	   -353.94441787	   -332.28737599	      8.22133640	    -23.25990190
      5.61000000	     37.15270887	      9.68218355	     13.27558286	   -203.86281534	    828.19772398	      0.24747351	     16.44861819	     38.83580410	     42.18909098	     45.00000000	    -43.26429443	  -1887.94972257	  -4607.22901663	     33.49495872	     47.11397649	    383.84160476	    153.42114370	     12.75902141	      3.97412947	     10.24556107	    -45.00000000	    -40.74930475	     45.00000000	    -34.54575141	   1178.60004263	  -3164.68565971	     24.51571658	    -15.89372622	   -353.57035339	   -329.12465096	      7.32802826	    -23.39687988
      5.62000000	     37.09540801	      9.94714140	     13.65432034	   -207.11620358	    828.49725776	      0.36452146	     16.52359418	     38.67239828	     42.01735410	     45.00000000	    -43.36476022	  -1888.09337613	  -4607.33705573	     33.18172175	     49.93426667	    384.11519273	    152.96801685	     12.56487134	      4.65882678	     10.39470145	    -45.00000000	    -40.36167615	     45.00000000	    -36.09923357	   1178.61470975	  -3164.58137310	     24.63138996	    -15.26354505	   -353.77347672	   -328.75893411	      7.50971942	    -23.61952929
      5.63000000	     37.00235956	     10.10379401	     13.94966788	   -210.23301800	    828.68856723	      0.45189690	     16.49158605	     38.51422387	     41.82687580	     45.00000000	    -44.21890468	  -1888.08693310	  -4607.22608160	     33.15100577	     50.83417351	    384.23537798	    153.23189540	     12.57058155	      4.72532922	     10.46823656	    -45.00000000	    -40.00525169	     45.00000000	    -37.29773914	   1178.75564228	  -3164.46795591	     24.68524337	    -15.18446104	   -353.78148378	   -327.91759383	      7.27204166	    -23.67724039
